<?xml version="1.0" encoding="UTF-8"?>
<svg id="Layer_1" data-name="Layer 1" xmlns="http://www.w3.org/2000/svg" viewBox="0 0 397.02 364.08">
  <defs>
    <style>
      .cls-1, .cls-2 {
        fill: #213668;
      }

      .cls-3 {
        fill: #23366e;
      }

      .cls-2 {
        stroke: #213668;
        stroke-miterlimit: 10;
      }
    </style>
  </defs>
  <path class="cls-3" d="M168.5,13.62h-6.76V0h45.12v13.62h-6.7c-.05,0-.11-.05-.16-.05h-31.33c-.06,0-.11.05-.17.05Z"/>
  <rect class="cls-3" x="171.38" y="19.07" width="25.88" height="19.67"/>
  <polygon class="cls-3" points="253.28 44.19 73.3 44.19 74.77 46.59 140.32 154.21 320.25 154.21 253.28 44.19"/>
  <polygon class="cls-3" points="25.84 154.21 133.95 154.21 79.89 65.5 25.84 154.21"/>
  <polygon class="cls-3" points="68.45 46.7 3.01 154.21 19.46 154.21 76.68 60.27 68.45 46.7"/>
  <line class="cls-2" x1="320.86" y1="160.23" x2="381.66" y2="256.42"/>
  <g>
    <path class="cls-1" d="M1.91,187.2v-4.25h7.08v4.25H1.91Z"/>
    <path class="cls-1" d="M11.24,174.87h9.6c1.96,0,3.45.42,4.45,1.27,1,.84,1.5,1.99,1.5,3.44,0,1.58-.67,2.79-2,3.62.79.46,1.39.99,1.8,1.6.41.61.61,1.36.61,2.27,0,1.41-.46,2.54-1.38,3.39-.92.85-2.21,1.27-3.88,1.27h-10.71v-16.86ZM18.03,178.26v3.28h.17c.74,0,1.26-.12,1.57-.37.31-.25.46-.67.46-1.28,0-1.09-.6-1.64-1.79-1.64h-.41ZM18.03,184.37v3.65h.21c.78,0,1.33-.13,1.66-.39.33-.26.5-.71.5-1.35,0-1.27-.63-1.9-1.9-1.9h-.47Z"/>
    <path class="cls-1" d="M35.17,191.93c-1.92,0-3.5-.63-4.74-1.91-1.24-1.27-1.87-2.93-1.87-4.97s.61-3.7,1.84-4.98c1.23-1.28,2.82-1.92,4.77-1.92s3.56.64,4.79,1.92c1.23,1.28,1.84,2.94,1.84,4.98s-.61,3.69-1.84,4.96c-1.23,1.27-2.83,1.91-4.79,1.91ZM35.17,183.4c-.4,0-.73.14-.98.43s-.38.65-.38,1.1.13.81.38,1.09c.25.28.58.42.98.42s.74-.14,1-.42c.25-.28.38-.64.38-1.09s-.13-.82-.38-1.1-.59-.42-1-.42Z"/>
    <path class="cls-1" d="M57.85,178.43v13.3h-5.95v-2.33h-.04c-.61.85-1.23,1.47-1.87,1.86-.64.39-1.39.59-2.27.59-1.27,0-2.29-.41-3.06-1.24-.77-.82-1.16-1.98-1.16-3.47v-8.71h5.87v7.17c0,1.21.38,1.81,1.13,1.81.5,0,.88-.24,1.14-.71v-8.28h6.22Z"/>
    <path class="cls-1" d="M59.12,178.43h6.36l1.2,2.85,1.09-2.85h2.89l1.14,2.85,1.23-2.85h6.45l-5.37,13.3h-3.46l-1.44-3.65-1.45,3.65h-3.46l-5.17-13.3Z"/>
    <path class="cls-1" d="M79.84,183.9v-4c1.76-1.05,3.75-1.58,5.97-1.58s3.68.5,4.69,1.49c1.01.99,1.51,2.52,1.51,4.56v7.36h-6.21v-.99c-.92.74-1.93,1.1-3.03,1.1-.93,0-1.7-.33-2.31-.99s-.92-1.49-.92-2.49c0-1.14.38-2.07,1.15-2.79s1.76-1.08,3-1.08c.72,0,1.43.1,2.12.31,0-.62-.22-1.1-.65-1.45-.43-.35-1.03-.52-1.81-.52-1.14,0-2.31.35-3.5,1.06ZM85.79,188.79v-1.86c-.38-.14-.71-.21-1.02-.21-.38,0-.68.11-.9.32-.23.21-.34.49-.34.84s.12.66.37.91.55.36.93.36.7-.12.97-.36Z"/>
    <path class="cls-1" d="M108.49,174.87v16.86h-7.39c-2.26,0-4.01-.64-5.26-1.92-1.25-1.28-1.87-2.9-1.87-4.84s.57-3.47,1.7-4.75c1.14-1.27,2.55-1.91,4.25-1.91.94,0,1.72.16,2.34.48v-3.92h6.22ZM102.26,186.89v-2.99c-.31-.22-.66-.33-1.05-.33-.37,0-.67.16-.92.48-.24.32-.36.72-.36,1.21,0,.57.15.98.44,1.24s.76.39,1.39.39h.49Z"/>
    <path class="cls-1" d="M109.3,178.43h6.21l1.35,3.39,1.32-3.39h6.21l-5.25,13.3h-4.6l-5.25-13.3Z"/>
    <path class="cls-1" d="M131.76,178.43v13.3h-6.21v-13.3c.82.51,1.88.76,3.19.76,1.21,0,2.22-.25,3.03-.76ZM129.97,178.47c-.48,0-.9-.19-1.25-.57-.35-.38-.52-.84-.52-1.37s.17-.98.52-1.36c.35-.38.76-.56,1.25-.56s.9.19,1.24.56c.34.38.51.83.51,1.36s-.17.99-.51,1.37c-.34.38-.75.57-1.24.57Z"/>
    <path class="cls-1" d="M146.55,186.66v2.33c-1.36,1.96-3.32,2.94-5.87,2.94-2.1,0-3.8-.64-5.08-1.93s-1.92-2.98-1.92-5.08.59-3.62,1.76-4.88,2.7-1.89,4.58-1.89c.96,0,1.85.18,2.66.53.82.35,1.52.87,2.12,1.56.6.69,1.04,1.48,1.32,2.39.28.91.42,2.01.42,3.31h-6.34c.23.68.61,1.21,1.15,1.59.54.38,1.15.57,1.84.57,1.39,0,2.51-.48,3.36-1.45ZM139.84,183.61h2.93c-.03-.66-.18-1.18-.45-1.55-.27-.37-.62-.56-1.06-.56-.38,0-.71.18-1,.54-.28.36-.42.88-.42,1.57Z"/>
    <path class="cls-1" d="M147.44,190.44l1.39-3.73c.43.63.95,1.13,1.55,1.49.6.36,1.2.54,1.78.54.36,0,.65-.09.87-.27s.33-.4.33-.69-.09-.51-.28-.71-.67-.43-1.46-.68c-.8-.25-1.45-.52-1.96-.82-.51-.3-.93-.74-1.27-1.32-.34-.58-.51-1.22-.51-1.9,0-1.33.52-2.36,1.55-3.09s2.49-1.1,4.36-1.1c2.1,0,3.9.38,5.4,1.14l-1.49,3.39c-.98-.96-1.92-1.45-2.84-1.45-.3,0-.55.07-.73.22-.19.15-.28.34-.28.56,0,.27.1.51.29.71.19.2.7.41,1.52.64.84.23,1.53.49,2.08.78.55.29.98.74,1.31,1.33.32.59.49,1.26.49,2.02,0,1.37-.5,2.45-1.51,3.24s-2.31,1.19-3.92,1.19c-2.17,0-4.39-.5-6.66-1.49Z"/>
    <path class="cls-1" d="M1.91,238.11v-4.25h7.08v4.25H1.91Z"/>
    <path class="cls-1" d="M17.05,225.52h4.07c-1.74,1.93-2.96,3.68-3.66,5.24-.7,1.57-1.05,3.29-1.05,5.19s.38,3.71,1.14,5.38,1.96,3.35,3.62,5.05h-4.12c-2.04-1.63-3.53-3.28-4.47-4.94s-1.42-3.49-1.42-5.49.48-3.84,1.44-5.52,2.44-3.31,4.45-4.91Z"/>
    <path class="cls-1" d="M28.17,242.64h-6.8l5.33-16.86h9.68l5.33,16.86h-6.79l-.88-2.85h-4.99l-.88,2.85ZM30.29,235.81h2.51l-1.26-4.19-1.26,4.19Z"/>
    <path class="cls-1" d="M53.25,233.36v2.81h-3.52v6.47h-6.22v-6.47h-1.34v-2.81h1.34c0-2.47.59-4.39,1.77-5.77s2.81-2.07,4.88-2.07c.86,0,1.89.17,3.09.5v6.7c-.6-.8-1.26-1.2-1.96-1.2-.49,0-.87.17-1.15.51s-.41.79-.41,1.35h3.52Z"/>
    <path class="cls-1" d="M53.52,225.52h4.16c1.98,1.61,3.45,3.26,4.41,4.95.96,1.69,1.44,3.51,1.44,5.48s-.48,3.77-1.43,5.45c-.95,1.68-2.44,3.34-4.46,4.98h-4.12c1.64-1.71,2.84-3.38,3.61-5.01.77-1.63,1.16-3.44,1.16-5.42s-.38-3.68-1.15-5.35-1.97-3.37-3.62-5.08Z"/>
    <path class="cls-1" d="M72.26,225.78v3.97c.78-.35,1.57-.52,2.35-.52,1.71,0,3.13.63,4.26,1.88,1.13,1.25,1.7,2.83,1.7,4.73s-.59,3.53-1.78,4.84c-1.19,1.31-2.86,1.97-5.01,1.97h-7.74v-16.86h6.21ZM72.26,237.8h.14c.52,0,.93-.03,1.22-.09.29-.06.53-.22.71-.46.18-.25.28-.63.28-1.17,0-.49-.12-.88-.36-1.17-.24-.29-.57-.43-.99-.43-.33,0-.66.1-1.01.31v3.02Z"/>
    <path class="cls-1" d="M88.63,242.84c-1.92,0-3.5-.64-4.74-1.91-1.24-1.27-1.87-2.93-1.87-4.97s.61-3.7,1.84-4.98c1.23-1.28,2.82-1.92,4.77-1.92s3.56.64,4.79,1.92c1.23,1.28,1.84,2.94,1.84,4.98s-.61,3.69-1.84,4.96c-1.23,1.27-2.83,1.91-4.79,1.91ZM88.63,234.31c-.4,0-.73.14-.98.43s-.38.65-.38,1.1.13.81.38,1.09.58.42.98.42.74-.14,1-.42.38-.64.38-1.09-.13-.83-.38-1.11c-.25-.28-.59-.42-1-.42Z"/>
    <path class="cls-1" d="M111.31,229.34v13.3h-5.95v-2.33h-.04c-.61.85-1.23,1.47-1.87,1.86-.64.39-1.39.58-2.27.58-1.27,0-2.29-.41-3.06-1.24-.77-.83-1.16-1.98-1.16-3.47v-8.71h5.87v7.17c0,1.21.38,1.81,1.13,1.81.5,0,.88-.24,1.14-.71v-8.28h6.22Z"/>
    <path class="cls-1" d="M112.58,229.34h6.36l1.2,2.85,1.09-2.85h2.89l1.14,2.85,1.23-2.85h6.45l-5.37,13.3h-3.46l-1.44-3.65-1.45,3.65h-3.46l-5.17-13.3Z"/>
    <path class="cls-1" d="M1.91,289.02v-4.25h7.08v4.25H1.91Z"/>
    <path class="cls-1" d="M11.27,276.69h10.02c1.74,0,3.1.48,4.09,1.44.99.96,1.49,2.16,1.49,3.61,0,1.59-.58,2.83-1.75,3.73,1.66,2.08,2.64,4.77,2.97,8.08h-7.05c-.13-2.13-.42-3.7-.87-4.72-.45-1.02-1.16-1.52-2.12-1.52v6.24h-6.79v-16.86ZM18.05,280.16v3.25h.19c1.22,0,1.83-.53,1.83-1.58,0-.44-.12-.83-.37-1.17-.25-.33-.66-.5-1.24-.5h-.41Z"/>
    <path class="cls-1" d="M41.82,288.48v2.33c-1.36,1.96-3.32,2.94-5.87,2.94-2.1,0-3.8-.64-5.08-1.93-1.28-1.29-1.92-2.98-1.92-5.08s.59-3.62,1.76-4.88,2.7-1.89,4.58-1.89c.96,0,1.85.18,2.66.53.82.35,1.52.87,2.12,1.56.6.68,1.04,1.48,1.32,2.39.28.91.42,2.01.42,3.32h-6.34c.23.68.61,1.21,1.15,1.59.54.38,1.15.57,1.84.57,1.39,0,2.51-.48,3.36-1.45ZM35.11,285.43h2.93c-.03-.66-.18-1.18-.45-1.55s-.62-.56-1.06-.56c-.38,0-.71.18-1,.54-.28.36-.42.88-.42,1.57Z"/>
    <path class="cls-1" d="M49.94,280.25v1.67c1.05-1.19,2.3-1.78,3.75-1.78s2.5.43,3.25,1.3c.75.87,1.13,2.15,1.13,3.85v8.26h-5.87v-7.76c0-1.11-.38-1.66-1.15-1.66-.37,0-.74.14-1.12.43v8.98h-6.21v-13.3h6.21Z"/>
    <path class="cls-1" d="M66.49,293.75c-1.92,0-3.5-.64-4.74-1.91-1.24-1.27-1.87-2.93-1.87-4.97s.61-3.7,1.84-4.98c1.23-1.28,2.82-1.92,4.77-1.92s3.56.64,4.79,1.92c1.23,1.28,1.84,2.94,1.84,4.98s-.61,3.69-1.84,4.96c-1.23,1.27-2.83,1.91-4.79,1.91ZM66.49,285.22c-.4,0-.73.14-.98.43s-.38.65-.38,1.1.13.81.38,1.09.58.42.98.42.74-.14,1-.42.38-.64.38-1.09-.13-.83-.38-1.11c-.25-.28-.59-.42-1-.42Z"/>
    <path class="cls-1" d="M72.73,280.25h6.21l1.35,3.39,1.32-3.39h6.21l-5.25,13.3h-4.6l-5.25-13.3Z"/>
    <path class="cls-1" d="M88.24,285.72v-4c1.76-1.05,3.75-1.58,5.97-1.58s3.68.5,4.69,1.49c1.01,1,1.51,2.52,1.51,4.56v7.36h-6.21v-.99c-.92.74-1.93,1.1-3.03,1.1-.93,0-1.7-.33-2.31-.99s-.92-1.49-.92-2.49c0-1.14.38-2.07,1.15-2.79.76-.72,1.76-1.08,3-1.08.72,0,1.43.1,2.12.31,0-.62-.22-1.1-.65-1.45-.43-.35-1.03-.52-1.81-.52-1.14,0-2.31.35-3.5,1.06ZM94.19,290.62v-1.86c-.38-.14-.71-.21-1.02-.21-.38,0-.68.11-.9.32-.23.21-.34.49-.34.84s.12.66.37.91c.24.24.55.36.93.36s.7-.12.97-.36Z"/>
    <path class="cls-1" d="M112.23,280.25v3.73h-2.59v2.85c0,.96.39,1.45,1.18,1.45.58,0,1.07-.32,1.49-.95v5.27c-.98.71-2.17,1.06-3.57,1.06-1.49,0-2.75-.49-3.78-1.47-1.02-.98-1.53-2.33-1.53-4.04v-4.17h-2.53l8.75-7.54v3.8h2.59Z"/>
    <path class="cls-1" d="M120.34,280.25v13.3h-6.21v-13.3c.82.51,1.88.76,3.19.76,1.21,0,2.22-.25,3.03-.76ZM118.55,280.3c-.48,0-.9-.19-1.25-.57-.35-.38-.52-.84-.52-1.37s.17-.98.52-1.36c.35-.38.76-.56,1.25-.56s.9.19,1.24.56c.34.38.51.83.51,1.36s-.17.99-.51,1.37-.75.57-1.24.57Z"/>
    <path class="cls-1" d="M135.13,288.48v2.33c-1.36,1.96-3.32,2.94-5.87,2.94-2.1,0-3.8-.64-5.08-1.93-1.28-1.29-1.92-2.98-1.92-5.08s.59-3.62,1.76-4.88,2.7-1.89,4.58-1.89c.96,0,1.85.18,2.66.53.82.35,1.52.87,2.12,1.56.6.68,1.04,1.48,1.32,2.39.28.91.42,2.01.42,3.32h-6.34c.23.68.61,1.21,1.15,1.59.54.38,1.15.57,1.84.57,1.39,0,2.51-.48,3.36-1.45ZM128.42,285.43h2.93c-.03-.66-.18-1.18-.45-1.55s-.62-.56-1.06-.56c-.38,0-.71.18-1,.54-.28.36-.42.88-.42,1.57Z"/>
  </g>
  <g>
    <path class="cls-3" d="M0,335.87h14.46c2.96,0,5.19.58,6.7,1.73,1.51,1.16,2.26,2.73,2.26,4.71,0,2.17-1,3.82-3.01,4.96,1.19.63,2.09,1.35,2.71,2.19.62.83.92,1.87.92,3.11,0,1.94-.69,3.49-2.08,4.65-1.39,1.16-3.33,1.74-5.83,1.74H0v-23.1ZM10.23,340.51v4.5h.26c1.11,0,1.9-.17,2.36-.51.46-.34.7-.92.7-1.75,0-1.49-.9-2.24-2.69-2.24h-.62ZM10.23,348.89v5h.32c1.17,0,2.01-.18,2.5-.54.5-.36.75-.98.75-1.85,0-1.74-.95-2.6-2.86-2.6h-.71Z"/>
    <path class="cls-3" d="M36.03,359.24c-2.89,0-5.27-.87-7.14-2.61-1.87-1.74-2.81-4.01-2.81-6.8s.92-5.07,2.77-6.83,4.24-2.63,7.17-2.63,5.36.88,7.21,2.63c1.85,1.76,2.78,4.03,2.78,6.83s-.93,5.05-2.78,6.8c-1.85,1.75-4.26,2.62-7.21,2.62ZM36.03,347.55c-.61,0-1.1.19-1.48.58-.38.39-.57.89-.57,1.51s.19,1.12.57,1.5c.38.38.87.58,1.48.58s1.11-.19,1.5-.58c.38-.38.58-.88.58-1.5s-.19-1.13-.58-1.51c-.38-.38-.88-.58-1.5-.58Z"/>
    <path class="cls-3" d="M70.17,340.74v18.22h-8.96v-3.19h-.06c-.92,1.16-1.86,2.01-2.82,2.54-.96.53-2.1.8-3.42.8-1.91,0-3.44-.57-4.61-1.7-1.17-1.13-1.75-2.71-1.75-4.75v-11.93h8.84v9.82c0,1.65.56,2.48,1.7,2.48.76,0,1.33-.32,1.71-.97v-11.34h9.37Z"/>
    <path class="cls-3" d="M72.08,340.74h9.58l1.8,3.91,1.63-3.91h4.34l1.71,3.91,1.85-3.91h9.7l-8.08,18.22h-5.21l-2.16-5-2.18,5h-5.21l-7.78-18.22Z"/>
    <path class="cls-3" d="M113.78,335.87v5.43c1.18-.47,2.36-.71,3.54-.71,2.57,0,4.71.86,6.42,2.57,1.71,1.72,2.56,3.88,2.56,6.48s-.89,4.83-2.68,6.63-4.3,2.69-7.54,2.69h-11.66v-23.1h9.35ZM113.78,352.34h.21c.79,0,1.4-.04,1.84-.13.44-.08.8-.3,1.07-.64.28-.34.42-.87.42-1.6,0-.68-.18-1.21-.54-1.6s-.86-.59-1.48-.59c-.49,0-1,.14-1.51.42v4.13Z"/>
    <path class="cls-3" d="M147.79,352.02v3.19c-2.05,2.68-5,4.03-8.84,4.03-3.17,0-5.72-.88-7.64-2.64-1.93-1.76-2.89-4.08-2.89-6.96s.89-4.96,2.66-6.69c1.77-1.73,4.07-2.59,6.9-2.59,1.44,0,2.78.24,4.01.73,1.23.48,2.3,1.2,3.19,2.13.9.94,1.56,2.03,1.98,3.27s.64,2.75.64,4.54h-9.55c.34.93.92,1.66,1.73,2.18.81.52,1.73.79,2.77.79,2.1,0,3.78-.66,5.06-1.98ZM137.68,347.84h4.4c-.04-.91-.27-1.62-.67-2.13-.41-.51-.94-.76-1.6-.76-.58,0-1.07.25-1.5.73s-.64,1.21-.64,2.16Z"/>
    <path class="cls-3" d="M172.04,335.87v23.1h-11.13c-3.4,0-6.04-.88-7.92-2.63s-2.82-3.97-2.82-6.63.86-4.76,2.57-6.5c1.71-1.74,3.84-2.61,6.4-2.61,1.41,0,2.59.22,3.53.65v-5.37h9.37ZM162.67,352.34v-4.1c-.46-.3-.99-.45-1.57-.45s-1.01.22-1.38.66c-.36.44-.54.99-.54,1.66,0,.78.22,1.34.66,1.7.44.36,1.14.54,2.1.54h.74Z"/>
    <path class="cls-3" d="M184.9,344.74c1.19-2.76,2.92-4.15,5.18-4.15,1.26,0,2.3.41,3.12,1.24s1.23,1.88,1.23,3.15-.4,2.41-1.2,3.23c-.8.82-1.85,1.23-3.14,1.23-1.47,0-2.73-.55-3.78-1.66-.93.79-1.39,2.25-1.39,4.39v6.8h-9.35v-18.22h9.35v4Z"/>
    <path class="cls-3" d="M205.01,340.74v18.22h-9.35v-18.22c1.23.7,2.83,1.04,4.8,1.04,1.83,0,3.35-.35,4.56-1.04ZM202.32,340.8c-.73,0-1.35-.26-1.88-.79-.52-.52-.79-1.15-.79-1.88s.26-1.35.79-1.86c.53-.52,1.15-.77,1.88-.77s1.35.26,1.86.77c.51.51.77,1.13.77,1.86s-.26,1.35-.77,1.88-1.14.79-1.86.79Z"/>
    <path class="cls-3" d="M220.01,340.74v13.05c0,3.39-.83,5.95-2.49,7.69s-3.88,2.6-6.65,2.6c-1.43,0-2.7-.27-3.81-.8v-6.95c.58.18,1.09.27,1.53.27.74,0,1.27-.22,1.59-.67.32-.45.48-1.26.48-2.44v-12.75c1.78.7,3.39,1.04,4.83,1.04,1.61,0,3.11-.35,4.53-1.04ZM217.32,340.8c-.73,0-1.35-.26-1.88-.79s-.79-1.15-.79-1.88.26-1.35.79-1.86c.52-.52,1.15-.77,1.88-.77s1.35.26,1.86.77c.52.51.77,1.13.77,1.86s-.26,1.35-.77,1.88c-.51.52-1.13.79-1.86.79Z"/>
    <path class="cls-3" d="M239.61,346.25v3.84h-5.3v8.87h-9.37v-8.87h-2.01v-3.84h2.01c0-3.38.89-6.02,2.67-7.91,1.78-1.89,4.23-2.84,7.35-2.84,1.3,0,2.85.23,4.65.68v9.17c-.91-1.1-1.89-1.65-2.95-1.65-.74,0-1.31.23-1.73.7s-.62,1.08-.62,1.85h5.3Z"/>
    <path class="cls-3" d="M262.61,335.87v7.72c1.75-.13,3.07-.87,3.98-2.22.91-1.35,1.36-3.18,1.36-5.5h10.41c0,2.82-.37,5.14-1.1,6.96-.74,1.83-1.89,3.34-3.45,4.54,3.15,2.4,4.88,6.27,5.21,11.59h-11.04c-.26-5.51-2.05-8.32-5.37-8.43v8.43h-10.22v-23.1h10.22Z"/>
    <path class="cls-3" d="M290.55,344.74c1.19-2.76,2.92-4.15,5.18-4.15,1.26,0,2.3.41,3.12,1.24.82.83,1.23,1.88,1.23,3.15s-.4,2.41-1.2,3.23c-.8.82-1.85,1.23-3.14,1.23-1.47,0-2.73-.55-3.78-1.66-.93.79-1.39,2.25-1.39,4.39v6.8h-9.36v-18.22h9.36v4Z"/>
    <path class="cls-3" d="M322.49,340.74v18.22h-8.96v-3.19h-.06c-.92,1.16-1.86,2.01-2.82,2.54-.96.53-2.1.8-3.42.8-1.91,0-3.44-.57-4.61-1.7-1.17-1.13-1.75-2.71-1.75-4.75v-11.93h8.84v9.82c0,1.65.57,2.48,1.7,2.48.76,0,1.33-.32,1.71-.97v-11.34h9.37Z"/>
    <path class="cls-3" d="M335.52,340.74v18.22h-9.36v-18.22c1.23.7,2.83,1.04,4.8,1.04,1.83,0,3.35-.35,4.56-1.04ZM332.83,340.8c-.73,0-1.35-.26-1.88-.79-.52-.52-.79-1.15-.79-1.88s.26-1.35.79-1.86c.53-.52,1.15-.77,1.88-.77s1.35.26,1.86.77c.51.51.77,1.13.77,1.86s-.26,1.35-.77,1.88-1.14.79-1.86.79Z"/>
    <path class="cls-3" d="M357.07,352.87v6.1h-19.51l6.58-12.4h-5.74v-5.83h18.75l-6.45,12.12h6.36Z"/>
    <path class="cls-3" d="M377.5,352.02v3.19c-2.05,2.68-5,4.03-8.84,4.03-3.17,0-5.72-.88-7.64-2.64-1.93-1.76-2.89-4.08-2.89-6.96s.89-4.96,2.66-6.69c1.77-1.73,4.07-2.59,6.9-2.59,1.44,0,2.78.24,4.01.73s2.3,1.2,3.19,2.13c.9.94,1.56,2.03,1.98,3.27s.64,2.75.64,4.54h-9.55c.34.93.92,1.66,1.73,2.18.81.52,1.73.79,2.77.79,2.1,0,3.78-.66,5.06-1.98ZM367.38,347.84h4.41c-.04-.91-.27-1.62-.67-2.13-.41-.51-.94-.76-1.6-.76-.57,0-1.07.25-1.5.73s-.64,1.21-.64,2.16Z"/>
  </g>
</svg>